<?xml version="1.0" encoding="utf-8"?>
<!-- Generator: Adobe Illustrator 24.1.1, SVG Export Plug-In . SVG Version: 6.00 Build 0)  -->
<svg version="1.1" id="Layer_1" xmlns="http://www.w3.org/2000/svg" xmlns:xlink="http://www.w3.org/1999/xlink" x="0px" y="0px"
	 viewBox="0 0 300 300" style="enable-background:new 0 0 300 300;" xml:space="preserve">
<style type="text/css">
	.st0{opacity:0.75;}
	.st1{fill:url(#SVGID_1_);}
	.st2{fill:url(#SVGID_2_);}
</style>
<g class="st0">
	<g>
		<radialGradient id="SVGID_1_" cx="150" cy="150" r="150" gradientUnits="userSpaceOnUse">
			<stop  offset="0" style="stop-color:#FFFFFF"/>
			<stop  offset="1" style="stop-color:#404040"/>
		</radialGradient>
		<path class="st1" d="M150,25c33.4,0,64.8,13,88.4,36.6C262,85.2,275,116.6,275,150s-13,64.8-36.6,88.4
			C214.8,262,183.4,275,150,275s-64.8-13-88.4-36.6C38,214.8,25,183.4,25,150s13-64.8,36.6-88.4C85.2,38,116.6,25,150,25 M150,0
			C67.2,0,0,67.2,0,150s67.2,150,150,150s150-67.2,150-150S232.8,0,150,0L150,0z"/>
	</g>
</g>
<g class="st0">
	<radialGradient id="SVGID_2_" cx="149.7872" cy="151.4184" r="100.8736" gradientUnits="userSpaceOnUse">
		<stop  offset="0" style="stop-color:#FFFFFF"/>
		<stop  offset="1" style="stop-color:#404040"/>
	</radialGradient>
	<path class="st2" d="M231.5,173.6l-102.8,59.2c-13.5,7.8-30.3-2-30.3-17.5V84.7c0-16.3,18.4-25.9,31.8-16.6l102.8,71.4
		C245.1,147.9,244.3,166.2,231.5,173.6z"/>
</g>
</svg>
