<?xml version="1.0" encoding="utf-8"?>
<!-- Generator: Adobe Illustrator 24.1.1, SVG Export Plug-In . SVG Version: 6.00 Build 0)  -->
<svg version="1.1" id="Layer_1" xmlns="http://www.w3.org/2000/svg" xmlns:xlink="http://www.w3.org/1999/xlink" x="0px" y="0px"
	 viewBox="0 0 100.5 91" style="enable-background:new 0 0 100.5 91;" xml:space="preserve">
<style type="text/css">
	.st0{fill:#FFFFFF;}
</style>
<path class="st0" d="M0,61.2c0-10.5,0-20.8,0-31.3c0.4,0,0.7,0,1,0c4.1,0,8.2,0,12.3,0c0.5,0,1-0.2,1.3-0.5C23.3,23,32,16.4,40.8,10
	c0.9-0.7,1.9-1.2,3-1.6c1-0.4,1.5,0.1,1.6,1.1c0,0.4,0,0.7,0,1.1c0,23.1,0,46.2,0,69.3c0,0.5,0,1-0.1,1.5c-0.1,1-0.8,1.4-1.7,1.1
	c-0.9-0.3-1.8-0.8-2.6-1.3c-8.8-6.5-17.6-13-26.4-19.5c-0.4-0.3-1-0.5-1.5-0.5c-4,0-8.1,0-12.1,0C0.7,61.2,0.4,61.2,0,61.2z"/>
<path class="st0" d="M100.5,45.5c-0.1,13.7-4.1,26.1-12.2,37.2c-1.8,2.5-4,4.8-6.1,7.1c-1.4,1.6-3.7,1.6-5.1,0.2
	c-1.4-1.4-1.5-3.5,0-5.1c3.1-3.2,5.9-6.7,8.2-10.5c3.7-6.2,6.2-12.9,7.3-20c1.8-11.2,0.3-21.9-4.4-32.2C85.5,16.3,81.8,11,77.3,6.4
	c-1.5-1.5-1.7-3.2-0.8-4.7c1.3-2,4-2.3,5.6-0.5c2.3,2.5,4.6,5.1,6.6,7.8c5.5,7.5,9,15.9,10.7,25C100.1,37.8,100.5,41.6,100.5,45.5z"
	/>
<path class="st0" d="M83.9,46.4c-0.2,11.7-4.6,22.7-13.4,31.8c-1.3,1.4-2.9,1.7-4.4,0.9c-1.4-0.7-2.2-2.2-1.9-3.8
	c0.2-0.7,0.6-1.5,1.1-2.1c3.3-3.5,6.1-7.4,8-11.9c1.5-3.4,2.5-7,3-10.6c1.5-12.4-2-23.1-10.4-32.3c-0.3-0.4-0.7-0.7-1-1.1
	c-1.2-1.4-1.1-3.5,0.2-4.8c1.3-1.3,3.5-1.4,4.8-0.1c2.4,2.3,4.5,4.8,6.3,7.6C81.3,27.8,83.8,36.2,83.9,46.4z"/>
<path class="st0" d="M69.5,45.4C69.3,53.8,66.4,61,60.6,67c-1.4,1.5-3.6,1.6-5,0.2c-1.4-1.3-1.6-3.4-0.3-4.9c2-2.2,3.9-4.6,5-7.4
	c3-7.1,2.7-14.1-1-20.8c-1-1.8-2.4-3.4-3.7-5c-1-1.2-1.5-2.5-0.9-4c1-2.5,4.1-3.1,5.9-1.1C66.4,29.9,69.3,37.1,69.5,45.4z"/>
</svg>
